# xmcd
#
# Track frame offsets:
#	150
#	17694
#	41174
#	59483
#	73089
#	85389
#	105372
#	131555
#	147065
#	169267
#	187349
#	201673
#	228433
#
# Disc length: 3307 seconds
#
# Revision: 1
# Processed by: cddbd v1.5.2PL0 Copyright (c) Steve Scherf et al.
# Submitted via: audiograbber 1.83.01
#
DISCID=c40ce90d
DTITLE=Tab Benoit - Brother To The Blues
DYEAR=2006
DGENRE=Blues/Rock
TTITLE0=Pack It Up
TTITLE1=Bring It On Home To Me
TTITLE2=Brother To The Blues
TTITLE3=Why Are People Like That?
TTITLE4=I'm On Your Side
TTITLE5=I Heard That Lonesome Whistle (with Jim Lauderdale)
TTITLE6=If You Love Me Like You Say
TTITLE7=Comin' On Strong (with Billy Joe Shaver)
TTITLE8=So High
TTITLE9=Grace's Song (with Jim Lauderdale)
TTITLE10=Moon Coming Over The Hill (with Jim Lauderdale)
TTITLE11=Somehow
TTITLE12=Can't Do One More Two-Step
EXTD=
EXTT0=
EXTT1=
EXTT2=
EXTT3=
EXTT4=
EXTT5=
EXTT6=
EXTT7=
EXTT8=
EXTT9=
EXTT10=
EXTT11=
EXTT12=
PLAYORDER=
